<svg width="40" height="40" viewBox="0 0 40 40" fill="none" xmlns="http://www.w3.org/2000/svg">
<path d="M40 40H0V0H40V40Z" stroke="#666666"/>
<path d="M30.8333 35C34.055 35 36.6667 32.3884 36.6667 29.1667C36.6667 25.945 34.055 23.3334 30.8333 23.3334C27.6117 23.3334 25 25.945 25 29.1667C25 32.3884 27.6117 35 30.8333 35Z" stroke="#666666" stroke-width="3.33333" stroke-linecap="round" stroke-linejoin="round"/>
<path d="M9.16665 35C12.3883 35 15 32.3884 15 29.1667C15 25.945 12.3883 23.3334 9.16665 23.3334C5.94499 23.3334 3.33331 25.945 3.33331 29.1667C3.33331 32.3884 5.94499 35 9.16665 35Z" stroke="#666666" stroke-width="3.33333" stroke-linecap="round" stroke-linejoin="round"/>
<path d="M25 9.99996C25.9205 9.99996 26.6666 9.25377 26.6666 8.33329C26.6666 7.41282 25.9205 6.66663 25 6.66663C24.0795 6.66663 23.3333 7.41282 23.3333 8.33329C23.3333 9.25377 24.0795 9.99996 25 9.99996Z" stroke="#666666" stroke-width="3.33333" stroke-linecap="round" stroke-linejoin="round"/>
<path d="M20 29.1667V23.3334L15 18.3334L21.6667 13.3334L25 18.3334H28.3333" stroke="#666666" stroke-width="3.33333" stroke-linecap="round" stroke-linejoin="round"/>
</svg>
