<svg width="40" height="40" viewBox="0 0 40 40" fill="none" xmlns="http://www.w3.org/2000/svg">
<path d="M40 40H0V0H40V40Z" stroke="#666666"/>
<path d="M25.8333 12.5L29.6666 16.3333C29.9782 16.6387 30.3971 16.8097 30.8333 16.8097C31.2696 16.8097 31.6884 16.6387 32 16.3333L35.5 12.8333C35.8054 12.5217 35.9764 12.1029 35.9764 11.6666C35.9764 11.2304 35.8054 10.8115 35.5 10.5L31.6666 6.66663" stroke="#666666" stroke-width="3.33333" stroke-linecap="round" stroke-linejoin="round"/>
<path d="M35 3.33337L19 19.3334" stroke="#666666" stroke-width="3.33333" stroke-linecap="round" stroke-linejoin="round"/>
<path d="M12.5 35C17.5626 35 21.6666 30.8959 21.6666 25.8333C21.6666 20.7707 17.5626 16.6666 12.5 16.6666C7.43737 16.6666 3.33331 20.7707 3.33331 25.8333C3.33331 30.8959 7.43737 35 12.5 35Z" stroke="#666666" stroke-width="3.33333" stroke-linecap="round" stroke-linejoin="round"/>
</svg>
